<?xml version="1.0" encoding="iso-8859-1"?>
<!-- Generator: Adobe Illustrator 16.0.0, SVG Export Plug-In . SVG Version: 6.00 Build 0)  -->
<!DOCTYPE svg PUBLIC "-//W3C//DTD SVG 1.1//EN" "http://www.w3.org/Graphics/SVG/1.1/DTD/svg11.dtd">
<svg version="1.1" id="Capa_1" xmlns="http://www.w3.org/2000/svg" xmlns:xlink="http://www.w3.org/1999/xlink" x="0px" y="0px"
	 width="30px" height="40px" viewBox="0 0 543.973 543.973" style="enable-background:new 0 0 543.973 543.973;"
	 xml:space="preserve">
<g>
	<g>
		<circle cx="232.254" cy="35.525" r="1.606"/>
		<circle cx="236.949" cy="35.525" r="1.606"/>
		<circle cx="241.645" cy="35.525" r="1.606"/>
		<circle cx="246.33" cy="35.525" r="1.606"/>
		<circle cx="251.025" cy="35.525" r="1.606"/>
		<circle cx="255.711" cy="35.525" r="1.606"/>
		<circle cx="260.396" cy="35.525" r="1.606"/>
		<circle cx="265.092" cy="35.525" r="1.606"/>
		<circle cx="269.777" cy="35.525" r="1.606"/>
		<circle cx="274.482" cy="35.525" r="1.606"/>
		<circle cx="279.168" cy="35.525" r="1.606"/>
		<circle cx="283.863" cy="35.525" r="1.606"/>
		<circle cx="288.549" cy="35.525" r="1.606"/>
		<circle cx="293.244" cy="35.525" r="1.606"/>
		<path d="M218.494,0c-51.255,0-92.804,41.559-92.804,92.804v358.354c0,51.256,41.549,92.814,92.804,92.814h106.985
			c51.265,0,92.805-41.559,92.805-92.814V92.814c0-51.255-41.54-92.804-92.805-92.804H218.494V0z M221.143,30.256h82.572
			c2.926,0,5.269,2.362,5.269,5.269c0,2.917-2.343,5.269-5.269,5.269h-82.572c-2.926,0-5.269-2.362-5.269-5.269
			S218.216,30.256,221.143,30.256z M194.808,501.076h-8.578c-0.574,0-1.033-0.469-1.033-1.043c0-0.564,0.468-1.043,1.033-1.043
			h8.578c0.583,0,1.042,0.479,1.042,1.043C195.85,500.607,195.391,501.076,194.808,501.076z M194.808,496.887h-8.578
			c-0.574,0-1.033-0.459-1.033-1.033c0-0.572,0.468-1.041,1.033-1.041h8.578c0.583,0,1.042,0.469,1.042,1.041
			C195.85,496.428,195.391,496.887,194.808,496.887z M202.056,499.611c0,1.234-1.004,2.238-2.237,2.238
			c-1.234,0-2.228-1.004-2.228-2.238v-7.371h-14.124v7.371c0,1.234-1.004,2.238-2.228,2.238c-1.233,0-2.238-1.004-2.238-2.238v-9.6
			c0-1.234,1.004-2.238,2.238-2.238h18.58c1.233,0,2.237,1.004,2.237,2.238V499.611L202.056,499.611z M305.848,504.986
			c-4.839,4.188-15.425,4.59-21.306,5.479c-5.871,0.891-16.036,0.891-22.721,0c-6.665-0.889-17.91-1.299-22.759-5.479
			c-2.964-2.553-4.8-6.158-4.8-10.146c0-7.744,6.933-14.018,15.472-14.018h45.441c8.539,0,15.472,6.273,15.472,14.018
			C310.657,498.828,308.812,502.434,305.848,504.986z M357.781,502.271h-7.019c-1.225,0-2.219-1.006-2.219-2.238
			c0-1.234,0.994-2.229,2.219-2.229h7.019c1.501,0,2.726-1.176,2.726-2.611c0-1.443-1.225-2.619-2.726-2.619h-5.919
			c-0.221,0.307-0.65,0.373-0.995,0.498c-0.104,0.027-0.334-0.029-0.497-0.096l-3.644-1.541c-0.439-0.191-0.727-0.621-0.727-1.1
			s0.287-0.918,0.727-1.1l3.644-1.539c0.431-0.182,0.956-0.096,1.311,0.248c0.048,0.049,0.095,0.105,0.134,0.164h5.977
			c3.968,0,7.19,3.184,7.19,7.084C364.972,499.086,361.75,502.271,357.781,502.271z M391.871,96.897v345.349
			c0,5.279-4.274,9.562-9.562,9.562H162.63c-5.288,0-9.562-4.283-9.562-9.562V96.897c0-5.278,4.274-9.562,9.562-9.562h219.679
			C387.588,87.334,391.871,91.619,391.871,96.897z M319.685,38.681c0-2.84,2.295-5.154,5.145-5.154c2.858,0,5.154,2.314,5.154,5.154
			c0,2.84-2.296,5.154-5.154,5.154C321.979,43.834,319.685,41.521,319.685,38.681z M352.541,25.484c4.456,0,8.052,3.605,8.052,8.051
			c0,4.447-3.596,8.052-8.052,8.052c-4.446,0-8.052-3.605-8.052-8.052C344.489,29.089,348.095,25.484,352.541,25.484z
			 M329.983,23.868c0,2.84-2.296,5.154-5.154,5.154c-2.85,0-5.145-2.314-5.145-5.154c0-2.85,2.295-5.164,5.145-5.164
			C327.688,18.705,329.983,21.019,329.983,23.868z"/>
	</g>
</g>
<g>
</g>
<g>
</g>
<g>
</g>
<g>
</g>
<g>
</g>
<g>
</g>
<g>
</g>
<g>
</g>
<g>
</g>
<g>
</g>
<g>
</g>
<g>
</g>
<g>
</g>
<g>
</g>
<g>
</g>
</svg>
